<?xml version="1.0" encoding="UTF-8" standalone="no"?>
<!DOCTYPE svg PUBLIC "-//W3C//DTD SVG 1.1//EN"
 "http://www.w3.org/Graphics/SVG/1.1/DTD/svg11.dtd">
<!-- Generated by graphviz version 2.43.0 (0)
 -->
<!-- Title: a_graph Pages: 1 -->
<svg width="874pt" height="443pt"
 viewBox="0.00 0.00 874.00 443.00" xmlns="http://www.w3.org/2000/svg" xmlns:xlink="http://www.w3.org/1999/xlink">
<g id="graph0" class="graph" transform="scale(1 1) rotate(0) translate(4 439)">
<title>a_graph</title>
<polygon fill="white" stroke="transparent" points="-4,4 -4,-439 870,-439 870,4 -4,4"/>
<!-- T283 -->
<g id="node1" class="node">
<title>T283</title>
<polygon fill="none" stroke="#0058ad" points="0,-405.5 0,-434.5 866,-434.5 866,-405.5 0,-405.5"/>
<text text-anchor="middle" x="433" y="-416.3" font-family="Times,serif" font-size="14.00" fill="#0058ad">r 3 [1 2 3 4 5 6 7 8 9 10 11 12 13 14 15 16 17 18 19 20 21 22 23 24 25 26 27 28 29 30 31 32 33 34 35 36 37 31 38 32]</text>
</g>
<!-- T257 -->
<g id="node6" class="node">
<title>T257</title>
<polygon fill="none" stroke="#0058ad" points="372.5,-324.5 372.5,-353.5 433.5,-353.5 433.5,-324.5 372.5,-324.5"/>
<text text-anchor="middle" x="403" y="-335.3" font-family="Times,serif" font-size="14.00" fill="#0058ad">a 3 33</text>
</g>
<!-- T283&#45;&gt;T257 -->
<g id="edge1" class="edge">
<title>T283:f0&#45;&gt;T257:f0</title>
<path fill="none" stroke="#5b00c0" d="M427.5,-405.14C423.18,-393.5 417.09,-377.04 412.06,-363.46"/>
<polygon fill="#5b00c0" stroke="#5b00c0" points="415.22,-361.92 408.47,-353.76 408.66,-364.36 415.22,-361.92"/>
<text text-anchor="middle" x="430.5" y="-375.8" font-family="Times,serif" font-size="14.00" fill="#5b00c0">rw</text>
</g>
<!-- T281 -->
<g id="node2" class="node">
<title>T281</title>
<polygon fill="none" stroke="#0058ad" points="363,-0.5 363,-29.5 505,-29.5 505,-0.5 363,-0.5"/>
<text text-anchor="middle" x="434" y="-11.3" font-family="Times,serif" font-size="14.00" fill="#0058ad">r 1 [1 2 3 4 5 6 7]</text>
</g>
<!-- T281&#45;&gt;T283 -->
<g id="edge2" class="edge">
<title>T281&#45;&gt;T283</title>
<path fill="none" stroke="#0050c0" d="M442.1,-29.75C450.37,-45.11 462,-70.99 462,-95 462,-340 462,-340 462,-340 462,-359.78 453.89,-380.72 446.25,-396.08"/>
<polygon fill="#0050c0" stroke="#0050c0" points="442.96,-394.81 441.39,-405.29 449.15,-398.08 442.96,-394.81"/>
<text text-anchor="middle" x="468.5" y="-213.8" font-family="Times,serif" font-size="14.00" fill="#0050c0">rt</text>
</g>
<!-- T275 -->
<g id="node3" class="node">
<title>T275</title>
<polygon fill="none" stroke="#0058ad" points="379,-81.5 379,-110.5 433,-110.5 433,-81.5 379,-81.5"/>
<text text-anchor="middle" x="406" y="-92.3" font-family="Times,serif" font-size="14.00" fill="#0058ad">a 1 7</text>
</g>
<!-- T275&#45;&gt;T281 -->
<g id="edge3" class="edge">
<title>T275:f0&#45;&gt;T281:f0</title>
<path fill="none" stroke="#c000a5" d="M411.14,-81.14C415.16,-69.5 420.85,-53.04 425.54,-39.46"/>
<polygon fill="#c000a5" stroke="#c000a5" points="428.94,-40.36 428.9,-29.76 422.32,-38.07 428.94,-40.36"/>
<text text-anchor="middle" x="432.5" y="-51.8" font-family="Times,serif" font-size="14.00" fill="#c000a5">wr</text>
</g>
<!-- T259 -->
<g id="node4" class="node">
<title>T259</title>
<polygon fill="none" stroke="#0058ad" points="372.5,-243.5 372.5,-272.5 433.5,-272.5 433.5,-243.5 372.5,-243.5"/>
<text text-anchor="middle" x="403" y="-254.3" font-family="Times,serif" font-size="14.00" fill="#0058ad">a 2 15</text>
</g>
<!-- T273 -->
<g id="node5" class="node">
<title>T273</title>
<polygon fill="none" stroke="#0058ad" points="372.5,-162.5 372.5,-191.5 433.5,-191.5 433.5,-162.5 372.5,-162.5"/>
<text text-anchor="middle" x="403" y="-173.3" font-family="Times,serif" font-size="14.00" fill="#0058ad">a 2 16</text>
</g>
<!-- T259&#45;&gt;T273 -->
<g id="edge4" class="edge">
<title>T259:f0&#45;&gt;T273:f0</title>
<path fill="none" stroke="#c02700" d="M403,-243.14C403,-231.61 403,-215.37 403,-201.86"/>
<polygon fill="#c02700" stroke="#c02700" points="406.5,-201.76 403,-191.76 399.5,-201.76 406.5,-201.76"/>
<text text-anchor="middle" x="415.5" y="-213.8" font-family="Times,serif" font-size="14.00" fill="#c02700">ww</text>
</g>
<!-- T273&#45;&gt;T275 -->
<g id="edge5" class="edge">
<title>T273&#45;&gt;T275</title>
<path fill="none" stroke="#0050c0" d="M403.52,-162.24C403.96,-150.8 404.59,-134.25 405.1,-120.69"/>
<polygon fill="#0050c0" stroke="#0050c0" points="408.6,-120.73 405.48,-110.6 401.61,-120.46 408.6,-120.73"/>
<text text-anchor="middle" x="411.5" y="-132.8" font-family="Times,serif" font-size="14.00" fill="#0050c0">rt</text>
</g>
<!-- T257&#45;&gt;T259 -->
<g id="edge6" class="edge">
<title>T257&#45;&gt;T259</title>
<path fill="none" stroke="#0050c0" d="M403,-324.24C403,-312.8 403,-296.25 403,-282.69"/>
<polygon fill="#0050c0" stroke="#0050c0" points="406.5,-282.6 403,-272.6 399.5,-282.6 406.5,-282.6"/>
<text text-anchor="middle" x="409.5" y="-294.8" font-family="Times,serif" font-size="14.00" fill="#0050c0">rt</text>
</g>
</g>
</svg>
