<?xml version="1.0" encoding="UTF-8" standalone="no"?>
<!DOCTYPE svg PUBLIC "-//W3C//DTD SVG 1.1//EN"
 "http://www.w3.org/Graphics/SVG/1.1/DTD/svg11.dtd">
<!-- Generated by graphviz version 2.43.0 (0)
 -->
<!-- Title: a_graph Pages: 1 -->
<svg width="586pt" height="686pt"
 viewBox="0.00 0.00 586.00 686.00" xmlns="http://www.w3.org/2000/svg" xmlns:xlink="http://www.w3.org/1999/xlink">
<g id="graph0" class="graph" transform="scale(1 1) rotate(0) translate(4 682)">
<title>a_graph</title>
<polygon fill="white" stroke="transparent" points="-4,4 -4,-682 582,-682 582,4 -4,4"/>
<!-- T722 -->
<g id="node1" class="node">
<title>T722</title>
<polygon fill="none" stroke="#0058ad" points="264,-648.5 264,-677.5 318,-677.5 318,-648.5 264,-648.5"/>
<text text-anchor="middle" x="291" y="-659.3" font-family="Times,serif" font-size="14.00" fill="#0058ad">a 1 4</text>
</g>
<!-- T737 -->
<g id="node3" class="node">
<title>T737</title>
<polygon fill="none" stroke="#0058ad" points="235,-567.5 235,-596.5 289,-596.5 289,-567.5 235,-567.5"/>
<text text-anchor="middle" x="262" y="-578.3" font-family="Times,serif" font-size="14.00" fill="#0058ad">a 1 5</text>
</g>
<!-- T722&#45;&gt;T737 -->
<g id="edge1" class="edge">
<title>T722:f0&#45;&gt;T737:f0</title>
<path fill="none" stroke="#c02700" d="M285.6,-648.22C283.52,-642.53 281.14,-635.97 279,-630 276.25,-622.33 273.28,-613.97 270.6,-606.4"/>
<polygon fill="#c02700" stroke="#c02700" points="273.81,-604.98 267.18,-596.72 267.21,-607.31 273.81,-604.98"/>
<text text-anchor="middle" x="291.5" y="-618.8" font-family="Times,serif" font-size="14.00" fill="#c02700">ww</text>
</g>
<!-- T739 -->
<g id="node2" class="node">
<title>T739</title>
<polygon fill="none" stroke="#0058ad" points="228.5,-486.5 228.5,-515.5 289.5,-515.5 289.5,-486.5 228.5,-486.5"/>
<text text-anchor="middle" x="259" y="-497.3" font-family="Times,serif" font-size="14.00" fill="#0058ad">a 3 29</text>
</g>
<!-- T843 -->
<g id="node7" class="node">
<title>T843</title>
<polygon fill="none" stroke="#0058ad" points="225.5,-405.5 225.5,-434.5 286.5,-434.5 286.5,-405.5 225.5,-405.5"/>
<text text-anchor="middle" x="256" y="-416.3" font-family="Times,serif" font-size="14.00" fill="#0058ad">a 3 34</text>
</g>
<!-- T739&#45;&gt;T843 -->
<g id="edge2" class="edge">
<title>T739:f0&#45;&gt;T843:f0</title>
<path fill="none" stroke="#c02700" d="M258.45,-486.14C258.02,-474.61 257.42,-458.37 256.92,-444.86"/>
<polygon fill="#c02700" stroke="#c02700" points="260.41,-444.63 256.55,-434.76 253.42,-444.89 260.41,-444.63"/>
<text text-anchor="middle" x="270.5" y="-456.8" font-family="Times,serif" font-size="14.00" fill="#c02700">ww</text>
</g>
<!-- T737&#45;&gt;T739 -->
<g id="edge3" class="edge">
<title>T737&#45;&gt;T739</title>
<path fill="none" stroke="#0050c0" d="M261.48,-567.24C261.04,-555.8 260.41,-539.25 259.9,-525.69"/>
<polygon fill="#0050c0" stroke="#0050c0" points="263.39,-525.46 259.52,-515.6 256.4,-525.73 263.39,-525.46"/>
<text text-anchor="middle" x="267.5" y="-537.8" font-family="Times,serif" font-size="14.00" fill="#0050c0">rt</text>
</g>
<!-- T707 -->
<g id="node4" class="node">
<title>T707</title>
<polygon fill="none" stroke="#0058ad" points="228.5,-81.5 228.5,-110.5 289.5,-110.5 289.5,-81.5 228.5,-81.5"/>
<text text-anchor="middle" x="259" y="-92.3" font-family="Times,serif" font-size="14.00" fill="#0058ad">a 4 37</text>
</g>
<!-- T709 -->
<g id="node9" class="node">
<title>T709</title>
<polygon fill="none" stroke="#0058ad" points="0,-0.5 0,-29.5 578,-29.5 578,-0.5 0,-0.5"/>
<text text-anchor="middle" x="289" y="-11.3" font-family="Times,serif" font-size="14.00" fill="#0058ad">r 4 [1 2 3 4 8 9 10 12 13 14 15 16 20 21 22 23 25 26 27 28 32 33 34 35 36 37]</text>
</g>
<!-- T707&#45;&gt;T709 -->
<g id="edge4" class="edge">
<title>T707:f0&#45;&gt;T709:f0</title>
<path fill="none" stroke="#c000a5" d="M264.5,-81.14C268.82,-69.5 274.91,-53.04 279.94,-39.46"/>
<polygon fill="#c000a5" stroke="#c000a5" points="283.34,-40.36 283.53,-29.76 276.78,-37.92 283.34,-40.36"/>
<text text-anchor="middle" x="286.5" y="-51.8" font-family="Times,serif" font-size="14.00" fill="#c000a5">wr</text>
</g>
<!-- T949 -->
<g id="node5" class="node">
<title>T949</title>
<polygon fill="none" stroke="#0058ad" points="220.5,-324.5 220.5,-353.5 281.5,-353.5 281.5,-324.5 220.5,-324.5"/>
<text text-anchor="middle" x="251" y="-335.3" font-family="Times,serif" font-size="14.00" fill="#0058ad">a 3 40</text>
</g>
<!-- T689 -->
<g id="node6" class="node">
<title>T689</title>
<polygon fill="none" stroke="#0058ad" points="226.5,-243.5 226.5,-272.5 287.5,-272.5 287.5,-243.5 226.5,-243.5"/>
<text text-anchor="middle" x="257" y="-254.3" font-family="Times,serif" font-size="14.00" fill="#0058ad">a 3 27</text>
</g>
<!-- T949&#45;&gt;T689 -->
<g id="edge5" class="edge">
<title>T949:f0&#45;&gt;T689:f0</title>
<path fill="none" stroke="#c02700" d="M252.1,-324.14C252.95,-312.61 254.16,-296.37 255.16,-282.86"/>
<polygon fill="#c02700" stroke="#c02700" points="258.66,-282.99 255.91,-272.76 251.68,-282.48 258.66,-282.99"/>
<text text-anchor="middle" x="267.5" y="-294.8" font-family="Times,serif" font-size="14.00" fill="#c02700">ww</text>
</g>
<!-- T691 -->
<g id="node8" class="node">
<title>T691</title>
<polygon fill="none" stroke="#0058ad" points="227.5,-162.5 227.5,-191.5 288.5,-191.5 288.5,-162.5 227.5,-162.5"/>
<text text-anchor="middle" x="258" y="-173.3" font-family="Times,serif" font-size="14.00" fill="#0058ad">a 4 36</text>
</g>
<!-- T689&#45;&gt;T691 -->
<g id="edge6" class="edge">
<title>T689&#45;&gt;T691</title>
<path fill="none" stroke="#0050c0" d="M257.17,-243.24C257.32,-231.8 257.53,-215.25 257.7,-201.69"/>
<polygon fill="#0050c0" stroke="#0050c0" points="261.2,-201.65 257.83,-191.6 254.2,-201.56 261.2,-201.65"/>
<text text-anchor="middle" x="264.5" y="-213.8" font-family="Times,serif" font-size="14.00" fill="#0050c0">rt</text>
</g>
<!-- T843&#45;&gt;T949 -->
<g id="edge7" class="edge">
<title>T843:f0&#45;&gt;T949:f0</title>
<path fill="none" stroke="#c02700" d="M255.08,-405.14C254.37,-393.61 253.37,-377.37 252.53,-363.86"/>
<polygon fill="#c02700" stroke="#c02700" points="256.02,-363.53 251.91,-353.76 249.03,-363.96 256.02,-363.53"/>
<text text-anchor="middle" x="266.5" y="-375.8" font-family="Times,serif" font-size="14.00" fill="#c02700">ww</text>
</g>
<!-- T691&#45;&gt;T707 -->
<g id="edge8" class="edge">
<title>T691:f0&#45;&gt;T707:f0</title>
<path fill="none" stroke="#c02700" d="M258.18,-162.14C258.33,-150.61 258.53,-134.37 258.69,-120.86"/>
<polygon fill="#c02700" stroke="#c02700" points="262.19,-120.8 258.82,-110.76 255.19,-120.72 262.19,-120.8"/>
<text text-anchor="middle" x="271.5" y="-132.8" font-family="Times,serif" font-size="14.00" fill="#c02700">ww</text>
</g>
<!-- T709&#45;&gt;T722 -->
<g id="edge9" class="edge">
<title>T709&#45;&gt;T722</title>
<path fill="none" stroke="#0050c0" d="M297.39,-29.71C305.95,-45.04 318,-70.89 318,-95 318,-583 318,-583 318,-583 318,-602.74 310.36,-623.83 303.21,-639.25"/>
<polygon fill="#0050c0" stroke="#0050c0" points="299.94,-637.98 298.66,-648.49 306.22,-641.06 299.94,-637.98"/>
<text text-anchor="middle" x="324.5" y="-335.3" font-family="Times,serif" font-size="14.00" fill="#0050c0">rt</text>
</g>
</g>
</svg>
